<svg id="Layer_1" data-name="Layer 1" xmlns="http://www.w3.org/2000/svg" xmlns:xlink="http://www.w3.org/1999/xlink" viewBox="0 0 512 512"><defs><style>.cls-1{fill:#1d1d1b;}.cls-2{fill:url(#linear-gradient);}.cls-3{fill:url(#linear-gradient-2);}.cls-4{fill:url(#linear-gradient-3);}.cls-5{fill:url(#linear-gradient-4);}</style><linearGradient id="linear-gradient" x1="279.44" y1="316.86" x2="383.21" y2="316.86" gradientUnits="userSpaceOnUse"><stop offset="0" stop-color="#fff"/><stop offset="0.21" stop-color="#fbfbfb"/><stop offset="0.4" stop-color="#f0f0f0"/><stop offset="0.55" stop-color="#e2e1e1"/><stop offset="0.66" stop-color="#dedddd"/><stop offset="0.76" stop-color="#d1d0d0"/><stop offset="0.88" stop-color="#bbbaba"/><stop offset="0.99" stop-color="#9e9d9d"/><stop offset="1" stop-color="#9a9999"/></linearGradient><linearGradient id="linear-gradient-2" x1="271.39" y1="212.1" x2="360.64" y2="212.1" xlink:href="#linear-gradient"/><linearGradient id="linear-gradient-3" x1="128.79" y1="256" x2="291.95" y2="256" xlink:href="#linear-gradient"/><linearGradient id="linear-gradient-4" x1="240.33" y1="341.17" x2="306.84" y2="341.17" xlink:href="#linear-gradient"/></defs><rect class="cls-1" width="512" height="512" rx="69.96"/><path class="cls-2" d="M382.74,363.61,333,297.85l-23.11-30.53a2.27,2.27,0,0,0-3.64,0l-26.32,34.77a2.32,2.32,0,0,0,0,2.79l46.56,61.53a2.28,2.28,0,0,0,1.82.91h52.63A2.31,2.31,0,0,0,382.74,363.61Zm-29.4-10H335.06a2.35,2.35,0,0,1-1.88-.94L297,304.93a2.42,2.42,0,0,1,0-2.89L306.17,290a2.35,2.35,0,0,1,3.76,0l45.3,59.86A2.39,2.39,0,0,1,353.34,353.65Z"/><path class="cls-3" d="M275.35,206.55l30.54,40.36a2.37,2.37,0,0,0,3.78,0l22-29.1,28.47-37.61a2.39,2.39,0,0,0-1.89-3.84h-68a2.38,2.38,0,0,0-1.89.94l-16.46,21.76a2.4,2.4,0,0,0,0,2.9Zm13.55-7.43,6.21-8.19a2.23,2.23,0,0,1,1.8-.9h34.14a2.28,2.28,0,0,1,1.8,3.67l-23.26,30.75a2.27,2.27,0,0,1-3.62,0L288.9,201.9A2.34,2.34,0,0,1,288.9,199.12Z"/><path class="cls-4" d="M290.53,260.25l0,0a7.05,7.05,0,0,0,0-8.42l-34.75-45.92-47.5-62.78a6.86,6.86,0,0,0-5.47-2.74H131.2a2.43,2.43,0,0,0-1.91,3.9l81.34,107.5a7.08,7.08,0,0,1,0,8.5l-28.45,37.6-52.89,69.9a2.43,2.43,0,0,0,1.91,3.9h71.64a6.89,6.89,0,0,0,5.47-2.74l47.5-62.78Z"/><path class="cls-5" d="M270.81,316.27a2.39,2.39,0,0,0-3.82,0l-26.17,34.59a2.4,2.4,0,0,0,0,2.92l9.32,12.32A2.29,2.29,0,0,0,252,367h52.55a2.35,2.35,0,0,0,1.83-3.78Zm13.65,41.5H259.34a1.08,1.08,0,0,1-.87-.44L254,351.44a1.17,1.17,0,0,1,0-1.4l12.51-16.53a1.14,1.14,0,0,1,1.83,0l17,22.46A1.12,1.12,0,0,1,284.46,357.77Z"/></svg>